<?xml version="1.0" encoding="UTF-8" standalone="no"?>
<!-- Created with Inkscape (http://www.inkscape.org/) -->

<svg
   version="1.1"
   id="svg9"
   width="257.6156"
   height="71.818687"
   viewBox="0 0 257.61561 71.81869"
   sodipodi:docname="COTIZACION_PREVIEW_1.pdf"
   xmlns:inkscape="http://www.inkscape.org/namespaces/inkscape"
   xmlns:sodipodi="http://sodipodi.sourceforge.net/DTD/sodipodi-0.dtd"
   xmlns="http://www.w3.org/2000/svg"
   xmlns:svg="http://www.w3.org/2000/svg">
  <defs
     id="defs13">
    <clipPath
       clipPathUnits="userSpaceOnUse"
       id="clipPath3647">
      <path
         d="M 0,1000 H 1000 V 0 H 0 Z"
         id="path3645" />
    </clipPath>
  </defs>
  <sodipodi:namedview
     id="namedview11"
     pagecolor="#ffffff"
     bordercolor="#000000"
     borderopacity="0.25"
     inkscape:showpageshadow="2"
     inkscape:pageopacity="0.0"
     inkscape:pagecheckerboard="0"
     inkscape:deskcolor="#d1d1d1"
     showgrid="false" />
  <g
     id="g3601"
     inkscape:groupmode="layer"
     inkscape:label="Page 2"
     transform="matrix(1.3333333,0,0,-1.3333333,-59.951317,1225.7884)">
    <g
       id="g3641">
      <g
         id="g3643"
         clip-path="url(#clipPath3647)">
        <g
           id="g3649"
           transform="translate(44.9675,881.8443)">
          <path
             d="m 0,0 -0.004,33.59 c 0,0.597 0.202,1.108 0.587,1.524 0.396,0.416 0.896,0.62 1.493,0.62 h 5.477 c 0.604,0 1.112,-0.204 1.528,-0.62 0.416,-0.416 0.627,-0.927 0.627,-1.524 L 9.711,8.495 Z"
             style="fill:#f4913d;fill-opacity:1;fill-rule:nonzero;stroke:none"
             id="path3651" />
        </g>
        <g
           id="g3653"
           transform="translate(67.5227,901.4693)">
          <path
             d="m 0,0 -0.01,-34.971 -9.624,10.319 v 15.591 z"
             style="fill:#787878;fill-opacity:1;fill-rule:nonzero;stroke:none"
             id="path3655" />
        </g>
        <g
           id="g3657"
           transform="translate(142.2726,909.6934)">
          <path
             d="m 0,0 c -2.305,0 -4.464,-0.474 -6.466,-1.422 -2.005,-0.948 -3.764,-2.206 -5.259,-3.779 -1.503,-1.571 -2.69,-3.41 -3.563,-5.514 -0.879,-2.1 -1.32,-4.286 -1.32,-6.551 0,-2.312 0.441,-4.508 1.32,-6.588 0.873,-2.08 2.06,-3.918 3.563,-5.511 1.495,-1.596 3.254,-2.867 5.259,-3.812 2.002,-0.948 4.161,-1.423 6.466,-1.423 2.308,0 4.467,0.475 6.469,1.423 2.009,0.945 3.761,2.216 5.259,3.812 1.5,1.593 2.69,3.431 3.563,5.511 0.876,2.08 1.316,4.276 1.316,6.588 0,2.265 -0.44,4.451 -1.316,6.551 -0.873,2.104 -2.063,3.943 -3.563,5.514 C 10.23,-3.628 8.478,-2.37 6.469,-1.422 4.467,-0.474 2.308,0 0,0 m -0.034,-43.616 c -3.601,0 -7.002,0.696 -10.193,2.08 -3.192,1.389 -5.975,3.271 -8.355,5.655 -2.377,2.377 -4.263,5.162 -5.647,8.354 -1.392,3.189 -2.084,6.609 -2.084,10.261 0,3.605 0.692,7.015 2.084,10.227 1.384,3.213 3.27,6.009 5.647,8.39 2.38,2.38 5.163,4.265 8.355,5.65 3.191,1.388 6.592,2.083 10.193,2.083 3.655,0 7.073,-0.695 10.264,-2.083 3.192,-1.385 5.972,-3.27 8.352,-5.65 2.38,-2.381 4.266,-5.177 5.654,-8.39 1.391,-3.212 2.08,-6.622 2.08,-10.227 0,-3.652 -0.689,-7.072 -2.08,-10.261 -1.388,-3.192 -3.274,-5.977 -5.654,-8.354 -2.38,-2.384 -5.16,-4.266 -8.352,-5.655 -3.191,-1.384 -6.609,-2.08 -10.264,-2.08"
             style="fill:#f4913d;fill-opacity:1;fill-rule:nonzero;stroke:none"
             id="path3659" />
        </g>
        <g
           id="g3661"
           transform="translate(44.9675,868.6465)">
          <path
             d="m 0,0 v 13.197 l 9.711,8.495 V 0 c 0,0 0.004,-2.148 -2.154,-2.148 H 2.08 C 2.08,-2.148 0,-2.162 0,0"
             style="fill:#787878;fill-opacity:1;fill-rule:nonzero;stroke:none"
             id="path3663" />
        </g>
        <g
           id="g3665"
           transform="translate(149.759,867.1583)">
          <path
             d="M 0,0 C 10.107,2.875 14.697,11.134 14.697,11.134 L -18.821,1.511 c 0,0 8.27,-4.512 18.821,-1.511"
             style="fill:#787878;fill-opacity:1;fill-rule:nonzero;stroke:none"
             id="path3667" />
        </g>
        <g
           id="g3669"
           transform="translate(185.9919,887.1793)">
          <path
             d="m 0,0 c 0,0 -2.289,8.177 2.203,17.528 3.662,7.612 10.652,11.26 10.652,11.26 h 0.495 z"
             style="fill:#f4913d;fill-opacity:1;fill-rule:nonzero;stroke:none"
             id="path3671" />
        </g>
        <g
           id="g3673"
           transform="translate(69.3913,902.8795)">
          <path
             d="m 0,0 7.226,6.813 -8.945,7.888 V 1.518 Z"
             style="fill:#f4913d;fill-opacity:1;fill-rule:nonzero;stroke:none"
             id="path3675" />
        </g>
        <g
           id="g3677"
           transform="translate(76.6145,909.6934)">
          <path
             d="m 0,0 36.342,-32.949 v -7.478 c 0,0 0.112,-4.901 -3.694,-1.538 -3.809,3.362 -39.874,35.152 -39.874,35.152 z"
             style="fill:#787878;fill-opacity:1;fill-rule:nonzero;stroke:none"
             id="path3679" />
        </g>
        <g
           id="g3681"
           transform="translate(103.2458,885.4844)">
          <path
             d="m 0,0 v 29.528 c 0,0 -0.031,2.148 2.152,2.148 h 5.405 c 0,0 2.155,0.151 2.155,-2.148 v -38.33 z"
             style="fill:#f4913d;fill-opacity:1;fill-rule:nonzero;stroke:none"
             id="path3683" />
        </g>
        <g
           id="g3685"
           transform="translate(185.9919,887.1793)">
          <path
             d="m 0,0 -8.839,-19.107 h -0.284 l -22.121,47.895 h 6.796 c 0,0 1.075,-0.078 1.511,-0.982 0.44,-0.903 11.898,-25.889 11.898,-25.889 0,0 0.736,-1.388 2.066,-1.388 1.33,0 2.023,1.514 2.023,1.514 L 5.013,27.806 c 0,0 0.624,0.982 1.571,0.982 h 6.271 l 2.824,1.351 c -0.566,1.146 -1.94,1.309 -1.94,1.309 H 6.516 C 5.62,31.448 4.985,31.025 4.109,30.575 3.236,30.128 2.629,28.921 2.629,28.921 L -8.973,3.833 c 0,0 -10.585,23.131 -11.843,25.327 -1.248,2.193 -3.632,2.288 -3.632,2.288 h -6.796 c 0,0 -1.269,0.113 -2.005,-0.706 -1.218,-1.353 -0.498,-2.809 -0.498,-2.809 l 22.142,-47.913 c 0,0 0.491,-1.722 2.476,-1.722 1.981,0 2.547,1.292 2.547,1.292 l 7.724,16.683 z"
             style="fill:#787878;fill-opacity:1;fill-rule:nonzero;stroke:none"
             id="path3687" />
        </g>
        <g
           id="g3689"
           transform="translate(201.7971,917.3809)">
          <path
             d="M 0,0 C 0,0 0.282,-0.57 0.293,-1 0.307,-1.426 0.333,-1.606 0,-2.401 l -13.808,-29.896 8.123,2.332 c 0,0 -2.677,5.204 0.72,13.132 3.399,7.936 12.283,9.883 14.939,9.774 13.617,-0.566 16.239,-13.746 16.239,-13.746 l 9.344,2.683 c 0,0 -2.8,12.407 -13.852,17.358 C 9.101,4.883 0,0 0,0"
             style="fill:#f4913d;fill-opacity:1;fill-rule:nonzero;stroke:none"
             id="path3691" />
        </g>
        <g
           id="g3693"
           transform="translate(187.1672,883.546)">
          <path
             d="m 0,0 0.853,1.633 8.126,2.333 c 0,0 3.553,-11.731 15.918,-11.782 7.404,-0.031 11.973,5.091 14.286,9.449 3.157,5.941 1.691,11.493 1.691,11.493 l 9.35,2.68 c 0,0 2.998,-9.712 -2.731,-19.199 C 43.919,-9.303 36.604,-16.478 25.535,-16.839 16.75,-17.129 9.951,-12.976 6.612,-9.743 1.613,-4.897 0,0 0,0"
             style="fill:#787878;fill-opacity:1;fill-rule:nonzero;stroke:none"
             id="path3695" />
        </g>
      </g>
    </g>
  </g>
</svg>
