<?xml version="1.0" encoding="UTF-8" standalone="no"?>
<!-- Created with Inkscape (http://www.inkscape.org/) -->

<svg
   version="1.1"
   id="svg9"
   width="40.557312"
   height="40.557373"
   viewBox="0 0 40.557313 40.557375"
   sodipodi:docname="COTIZACION_PREVIEW_1.pdf"
   xmlns:inkscape="http://www.inkscape.org/namespaces/inkscape"
   xmlns:sodipodi="http://sodipodi.sourceforge.net/DTD/sodipodi-0.dtd"
   xmlns="http://www.w3.org/2000/svg"
   xmlns:svg="http://www.w3.org/2000/svg">
  <defs
     id="defs13">
    <clipPath
       clipPathUnits="userSpaceOnUse"
       id="clipPath3505">
      <path
         d="M 0,1000 H 1000.001 V 0 H 0 Z"
         id="path3503" />
    </clipPath>
  </defs>
  <sodipodi:namedview
     id="namedview11"
     pagecolor="#ffffff"
     bordercolor="#000000"
     borderopacity="0.25"
     inkscape:showpageshadow="2"
     inkscape:pageopacity="0.0"
     inkscape:pagecheckerboard="0"
     inkscape:deskcolor="#d1d1d1"
     showgrid="false" />
  <g
     id="g17"
     inkscape:groupmode="layer"
     inkscape:label="Page 1"
     transform="matrix(1.3333333,0,0,-1.3333333,-632.16837,127.7507)">
    <g
       id="g3499">
      <g
         id="g3501"
         clip-path="url(#clipPath3505)">
        <g
           id="g3507"
           transform="translate(489.2743,65.3951)">
          <path
             d="m 0,0 c -8.408,0.005 -15.154,6.814 -15.148,15.289 0.006,8.398 6.825,15.138 15.307,15.129 C 8.55,30.41 15.279,23.584 15.27,15.092 15.26,6.742 8.434,-0.004 0,0"
             style="fill:#ffffff;fill-opacity:1;fill-rule:nonzero;stroke:none"
             id="path3509" />
        </g>
        <g
           id="g3511"
           transform="translate(489.3373,87.7403)">
          <path
             d="m 0,0 c -2.022,0.007 -3.665,-1.604 -3.673,-3.601 -0.009,-2.021 1.616,-3.679 3.622,-3.696 1.999,-0.018 3.668,1.638 3.673,3.644 C 3.627,-1.64 2.008,-0.007 0,0 M -0.009,2.028 C 3.549,2.031 6.205,-1.124 5.631,-4.664 5.354,-6.376 4.717,-7.968 3.984,-9.523 2.908,-11.808 1.619,-13.972 0.213,-16.067 0.004,-16.379 0,-16.379 -0.216,-16.06 c -1.55,2.295 -2.963,4.667 -4.087,7.203 -0.642,1.449 -1.168,2.933 -1.37,4.52 -0.283,2.232 0.915,4.583 2.914,5.657 0.908,0.487 1.762,0.707 2.75,0.708"
             style="fill:#ff9332;fill-opacity:1;fill-rule:nonzero;stroke:none"
             id="path3513" />
        </g>
      </g>
    </g>
  </g>
</svg>
