<?xml version="1.0" encoding="UTF-8" standalone="no"?>
<!-- Created with Inkscape (http://www.inkscape.org/) -->

<svg
   version="1.1"
   id="svg9"
   width="40.55735"
   height="40.557373"
   viewBox="0 0 40.557352 40.557375"
   sodipodi:docname="COTIZACION_PREVIEW_1.pdf"
   xmlns:inkscape="http://www.inkscape.org/namespaces/inkscape"
   xmlns:sodipodi="http://sodipodi.sourceforge.net/DTD/sodipodi-0.dtd"
   xmlns="http://www.w3.org/2000/svg"
   xmlns:svg="http://www.w3.org/2000/svg">
  <defs
     id="defs13">
    <clipPath
       clipPathUnits="userSpaceOnUse"
       id="clipPath3547">
      <path
         d="M 0,1000 H 1000.001 V 0 H 0 Z"
         id="path3545" />
    </clipPath>
  </defs>
  <sodipodi:namedview
     id="namedview11"
     pagecolor="#ffffff"
     bordercolor="#000000"
     borderopacity="0.25"
     inkscape:showpageshadow="2"
     inkscape:pageopacity="0.0"
     inkscape:pagecheckerboard="0"
     inkscape:deskcolor="#d1d1d1"
     showgrid="false" />
  <g
     id="g17"
     inkscape:groupmode="layer"
     inkscape:label="Page 1"
     transform="matrix(1.3333333,0,0,-1.3333333,-43.94319,127.7507)">
    <g
       id="g3541">
      <g
         id="g3543"
         clip-path="url(#clipPath3547)">
        <g
           id="g3549"
           transform="translate(48.1054,65.3951)">
          <path
             d="m 0,0 c -8.408,0.005 -15.155,6.814 -15.148,15.289 0.005,8.398 6.825,15.138 15.307,15.129 C 8.55,30.41 15.279,23.584 15.27,15.092 15.26,6.742 8.434,-0.004 0,0"
             style="fill:#ffffff;fill-opacity:1;fill-rule:nonzero;stroke:none"
             id="path3551" />
        </g>
        <g
           id="g3553"
           transform="translate(39.6215,85.8218)">
          <path
             d="M 0,0 C -0.036,1.225 1.129,2.875 2.289,3.242 3.415,3.598 4.687,2.95 5.085,1.767 5.351,0.977 5.585,0.17 5.749,-0.646 5.924,-1.515 5.57,-2.244 4.901,-2.797 4.491,-3.135 4.417,-3.466 4.618,-3.972 c 0.991,-2.494 2.716,-4.225 5.225,-5.185 0.42,-0.161 0.742,-0.173 1.059,0.217 0.783,0.965 1.772,1.168 2.931,0.745 0.498,-0.181 1.03,-0.264 1.537,-0.422 1.799,-0.557 2.218,-2.436 0.992,-3.85 -0.953,-1.099 -2.018,-1.405 -3.42,-1.27 C 5.888,-13.058 0.206,-7.061 0,0"
             style="fill:#ff9332;fill-opacity:1;fill-rule:nonzero;stroke:none"
             id="path3555" />
        </g>
      </g>
    </g>
  </g>
</svg>
